<svg xmlns="http://www.w3.org/2000/svg" width="230" height="64" viewBox="0 0 230 64">
  <g id="Group_6" data-name="Group 6" transform="translate(-1533 -958)">
    <g id="_002-instagram" data-name="002-instagram" transform="translate(1532.551 958)">
      <path id="Path_1" data-name="Path 1" d="M64.287,18.816A23.382,23.382,0,0,0,62.8,11.052a16.4,16.4,0,0,0-9.366-9.364A23.454,23.454,0,0,0,45.667.2C42.24.038,41.153,0,32.462,0S22.683.038,19.269.188A23.4,23.4,0,0,0,11.5,1.675a15.619,15.619,0,0,0-5.678,3.7A15.757,15.757,0,0,0,2.137,11.04,23.445,23.445,0,0,0,.649,18.8c-.163,3.426-.2,4.514-.2,13.2S.487,41.783.637,45.2a23.38,23.38,0,0,0,1.488,7.764,16.393,16.393,0,0,0,9.366,9.364,23.458,23.458,0,0,0,7.766,1.488c3.413.15,4.5.188,13.193.188s9.779-.037,13.193-.188a23.388,23.388,0,0,0,7.765-1.488,16.372,16.372,0,0,0,9.366-9.364A23.461,23.461,0,0,0,64.262,45.2c.15-3.413.188-4.5.188-13.19S64.437,22.23,64.287,18.816Zm-5.764,26.13a17.539,17.539,0,0,1-1.1,5.939,10.618,10.618,0,0,1-6.078,6.076,17.61,17.61,0,0,1-5.94,1.1c-3.376.15-4.389.188-12.93.188s-9.566-.037-12.93-.188a17.539,17.539,0,0,1-5.94-1.1,9.85,9.85,0,0,1-3.676-2.388A9.95,9.95,0,0,1,7.539,50.9a17.6,17.6,0,0,1-1.1-5.939c-.15-3.376-.188-4.389-.188-12.928s.037-9.564.188-12.927a17.53,17.53,0,0,1,1.1-5.939,9.727,9.727,0,0,1,2.4-3.676A9.937,9.937,0,0,1,13.617,7.1,17.623,17.623,0,0,1,19.557,6c3.376-.15,4.389-.188,12.93-.188s9.566.038,12.93.188a17.548,17.548,0,0,1,5.94,1.1,9.843,9.843,0,0,1,3.676,2.388,9.948,9.948,0,0,1,2.389,3.676,17.61,17.61,0,0,1,1.1,5.939c.15,3.376.188,4.388.188,12.927S58.672,41.571,58.522,44.946Zm0,0" fill="#fff"/>
      <path id="Path_2" data-name="Path 2" d="M141.393,124.5a16.438,16.438,0,1,0,16.444,16.438A16.445,16.445,0,0,0,141.393,124.5Zm0,27.1a10.663,10.663,0,1,1,10.667-10.663A10.666,10.666,0,0,1,141.393,151.6Zm0,0" transform="translate(-108.931 -108.931)" fill="#fff"/>
      <path id="Path_3" data-name="Path 3" d="M370.128,92.44a3.839,3.839,0,1,1-3.839-3.839A3.839,3.839,0,0,1,370.128,92.44Zm0,0" transform="translate(-316.732 -77.524)" fill="#fff"/>
    </g>
    <g id="_003-linkedin-logo" data-name="003-linkedin-logo" transform="translate(1616 958)">
      <g id="post-linkedin">
        <path id="Path_4" data-name="Path 4" d="M57.6,0H6.4A6.419,6.419,0,0,0,0,6.4V57.6A6.419,6.419,0,0,0,6.4,64H57.6A6.419,6.419,0,0,0,64,57.6V6.4A6.419,6.419,0,0,0,57.6,0ZM19.2,54.4H9.6V25.6h9.6ZM14.4,20.16a5.76,5.76,0,1,1,5.76-5.76A5.736,5.736,0,0,1,14.4,20.16Zm40,34.24H44.8V37.44a4.8,4.8,0,0,0-9.6,0V54.4H25.6V25.6h9.6v3.84a10.337,10.337,0,0,1,8-4.48,11.338,11.338,0,0,1,11.2,11.2Z" fill="#fff"/>
      </g>
    </g>
    <g id="_004-facebook-app-logo" data-name="004-facebook-app-logo" transform="translate(1699 957.999)">
      <path id="Path_5" data-name="Path 5" d="M60.466,0H3.532A3.532,3.532,0,0,0,0,3.533V60.467A3.534,3.534,0,0,0,3.532,64H34.183V39.216h-8.34v-9.66h8.34V22.432c0-8.265,5.047-12.768,12.421-12.768a69.173,69.173,0,0,1,7.451.379v8.639l-5.115,0c-4.01,0-4.783,1.906-4.783,4.7v6.166h9.566l-1.251,9.659H44.157V64H60.464A3.536,3.536,0,0,0,64,60.467V3.531A3.533,3.533,0,0,0,60.466,0Z" transform="translate(0 0)" fill="#fff"/>
    </g>
  </g>
</svg>
